<?xml version="1.0" standalone="no"?>
<!DOCTYPE svg PUBLIC "-//W3C//DTD SVG 20010904//EN"
 "http://www.w3.org/TR/2001/REC-SVG-20010904/DTD/svg10.dtd">
<svg version="1.0" xmlns="http://www.w3.org/2000/svg"
 width="2084.000000pt" height="2084.000000pt" viewBox="0 0 2084.000000 2084.000000"
 preserveAspectRatio="xMidYMid meet">
<metadata>
Created by potrace 1.11, written by Peter Selinger 2001-2013
</metadata>
<g transform="translate(0.000000,2084.000000) scale(0.100000,-0.100000)"
fill="#000000" stroke="none">
<path d="M1208 19795 c-97 -24 -158 -104 -158 -204 0 -32 8 -67 20 -90 23 -45
84 -100 120 -107 l25 -6 0 -3977 0 -3978 -32 -36 c-77 -87 -68 -217 20 -294
81 -71 203 -69 280 5 l28 27 3962 0 3962 0 30 -40 c101 -134 309 -103 363 54
26 74 7 158 -46 214 l-27 28 0 4002 0 4002 40 30 c162 124 82 372 -121 376
-61 2 -118 -25 -162 -76 -18 -20 -32 -39 -32 -43 0 -4 -1806 -7 -4012 -7
l-4013 0 -26 35 c-36 48 -58 66 -99 78 -63 18 -75 19 -122 7z m8318 -351 l24
-25 0 -4005 c0 -2202 -4 -4004 -8 -4004 -5 0 -26 -15 -48 -34 l-39 -33 -3961
0 -3961 0 -17 32 c-10 18 -35 43 -55 56 l-38 24 0 4000 c0 2200 1 4003 4 4008
2 4 1820 7 4040 7 l4036 0 23 -26z"/>
<path d="M11263 19747 c-152 -57 -177 -269 -43 -366 l37 -27 0 -4001 0 -4001
-24 -29 c-44 -50 -57 -85 -57 -148 0 -65 15 -104 58 -147 87 -86 242 -76 314
21 15 20 30 38 33 41 4 3 1792 5 3973 5 l3966 0 19 -30 c37 -61 100 -95 176
-95 219 0 289 295 93 396 -68 35 -181 18 -234 -35 l-29 -30 -3993 -1 -3994 0
-41 35 c-22 19 -43 35 -46 35 -3 0 -6 1802 -6 4004 l0 4003 32 36 c75 85 68
213 -15 292 -55 51 -146 69 -219 42z"/>
<path d="M15293 10089 c-66 -13 -132 -74 -151 -138 -10 -31 -22 -42 -74 -70
-74 -39 -240 -126 -428 -223 -74 -39 -157 -83 -185 -98 -27 -15 -104 -56 -170
-90 -66 -34 -160 -84 -210 -110 -169 -89 -280 -147 -410 -215 -71 -38 -182
-96 -245 -129 -63 -34 -142 -75 -175 -91 -33 -17 -62 -32 -65 -35 -3 -3 -50
-28 -105 -56 -92 -46 -145 -74 -380 -199 -44 -23 -143 -75 -220 -115 -77 -40
-167 -87 -200 -105 -33 -18 -118 -63 -190 -100 -71 -37 -166 -87 -210 -110
-44 -23 -181 -95 -305 -160 -124 -64 -236 -124 -249 -132 -21 -13 -29 -13 -77
2 -81 25 -152 11 -210 -42 -85 -77 -93 -204 -18 -292 l34 -39 0 -2013 0 -2013
-31 -32 c-16 -17 -36 -51 -43 -75 -46 -154 68 -289 231 -273 40 4 58 -2 157
-55 61 -32 165 -87 231 -121 120 -62 259 -135 410 -215 107 -57 348 -183 590
-310 110 -58 251 -131 400 -210 44 -23 134 -71 200 -105 130 -68 655 -343 800
-420 254 -134 486 -255 620 -326 83 -43 204 -106 270 -141 66 -35 148 -78 183
-96 47 -24 62 -37 62 -53 0 -30 20 -84 43 -117 76 -110 256 -108 337 5 18 24
32 59 36 87 6 45 8 48 63 76 31 16 112 59 181 96 69 36 202 105 295 154 94 48
184 95 200 105 17 10 98 52 180 95 83 43 182 95 220 115 39 20 129 68 200 105
72 37 153 80 180 95 28 15 118 62 200 105 83 43 173 90 200 105 28 15 122 64
210 110 88 45 187 97 220 115 33 18 119 63 190 100 72 37 162 84 200 105 39
21 124 66 190 100 66 35 161 84 210 110 50 26 144 75 210 110 66 34 143 75
170 90 28 15 121 64 207 109 149 77 160 82 208 77 87 -9 169 33 209 105 42 75
29 184 -28 243 l-31 32 0 2013 0 2013 34 39 c140 164 -24 403 -228 334 l-47
-16 -157 82 c-249 130 -356 186 -532 279 -91 48 -228 120 -305 160 -77 40
-171 89 -210 110 -138 73 -262 138 -390 205 -71 37 -161 84 -200 105 -38 20
-119 63 -180 95 -60 32 -150 79 -200 105 -49 26 -182 96 -295 155 -113 59
-250 131 -305 160 -337 177 -523 274 -615 323 -58 30 -141 74 -185 97 -44 23
-122 63 -172 89 -86 44 -94 50 -105 88 -13 44 -60 98 -105 122 -35 18 -96 25
-140 15z m53 -411 c36 0 65 6 89 21 l37 21 81 -44 c45 -24 174 -92 287 -151
113 -59 246 -129 295 -155 50 -26 144 -76 210 -110 66 -34 147 -77 180 -95 33
-18 128 -67 210 -110 83 -43 182 -95 220 -115 39 -21 120 -63 180 -95 61 -32
151 -79 200 -105 50 -26 144 -76 210 -110 155 -81 309 -162 410 -215 93 -50
218 -115 400 -210 72 -37 162 -85 200 -105 39 -21 124 -66 190 -100 66 -34
165 -86 220 -116 55 -29 151 -80 214 -112 113 -59 115 -60 126 -104 14 -55 48
-104 86 -123 16 -9 30 -21 30 -28 1 -6 2 -904 3 -1994 l1 -1983 -43 -30 c-49
-35 -81 -95 -84 -159 -2 -47 8 -40 -263 -181 -77 -40 -171 -90 -210 -110 -38
-21 -124 -65 -190 -100 -66 -34 -160 -84 -210 -110 -49 -26 -144 -75 -210
-110 -66 -34 -151 -79 -190 -100 -38 -21 -128 -68 -200 -105 -156 -81 -479
-251 -590 -310 -44 -23 -143 -75 -220 -115 -77 -40 -162 -85 -190 -100 -27
-15 -113 -60 -190 -100 -77 -40 -171 -90 -210 -110 -38 -21 -124 -66 -190
-100 -66 -34 -156 -82 -200 -105 -44 -23 -143 -75 -220 -115 -77 -40 -189
-100 -250 -132 -60 -33 -117 -59 -125 -59 -8 1 -43 4 -77 7 -35 4 -75 2 -92
-4 -27 -10 -41 -5 -148 52 -65 34 -185 98 -268 141 -82 43 -177 92 -210 110
-33 18 -114 61 -180 95 -66 34 -156 82 -200 105 -154 81 -291 153 -410 215
-129 67 -262 137 -390 205 -44 23 -132 69 -195 102 -176 92 -326 171 -425 223
-49 26 -148 78 -220 115 -71 37 -152 80 -180 95 -27 15 -108 58 -180 95 -213
111 -336 175 -410 215 -38 20 -128 68 -200 105 -71 37 -162 85 -201 106 l-71
39 -1 46 c-2 56 -38 123 -85 155 -17 12 -34 24 -37 27 -3 2 -5 899 -5 1994 l0
1989 31 20 c41 25 83 87 91 132 6 40 -28 20 383 235 58 30 137 72 175 92 39
21 124 66 190 100 66 35 156 82 200 105 44 23 143 75 220 115 77 40 163 85
190 100 28 15 113 60 190 100 77 40 181 94 230 120 50 26 140 73 200 105 61
32 146 77 190 100 129 69 530 279 815 427 63 33 147 77 185 98 39 21 120 63
180 95 105 55 240 126 404 213 l75 39 45 -20 c26 -11 66 -19 97 -19z"/>
<path d="M1215 9661 c-35 -16 -62 -41 -115 -108 -6 -7 -10 -58 -10 -114 0 -82
3 -100 14 -96 8 3 31 -9 51 -27 84 -75 209 -74 288 2 l28 27 3964 0 3963 0 17
-32 c10 -18 35 -44 55 -58 l38 -26 0 -3981 0 -3981 -24 -24 c-127 -127 -44
-347 134 -357 63 -3 105 11 151 51 102 87 90 263 -23 332 l-31 20 0 3983 0
3983 23 23 c32 32 62 100 62 142 0 98 -67 189 -155 208 -80 17 -162 -5 -209
-57 l-19 -21 -3961 1 -3961 0 -30 41 c-56 76 -167 107 -250 69z"/>
</g>
</svg>
