<?xml version="1.0" standalone="no"?>
<!DOCTYPE svg PUBLIC "-//W3C//DTD SVG 20010904//EN"
 "http://www.w3.org/TR/2001/REC-SVG-20010904/DTD/svg10.dtd">
<svg version="1.0" xmlns="http://www.w3.org/2000/svg"
 width="2084.000000pt" height="2084.000000pt" viewBox="0 0 2084.000000 2084.000000"
 preserveAspectRatio="xMidYMid meet">
<metadata>
Created by potrace 1.11, written by Peter Selinger 2001-2013
</metadata>
<g transform="translate(0.000000,2084.000000) scale(0.100000,-0.100000)"
fill="#000000" stroke="none">
<path d="M11355 19711 c-108 -27 -175 -112 -175 -221 0 -70 16 -108 69 -163
82 -86 236 -84 318 5 120 128 54 340 -118 377 -55 12 -51 12 -94 2z"/>
<path d="M1303 19609 c-86 -42 -127 -117 -121 -221 3 -55 9 -75 33 -110 61
-86 187 -122 281 -79 74 34 134 127 134 207 0 83 -58 170 -135 205 -55 26
-139 24 -192 -2z"/>
<path d="M9480 19614 c-154 -66 -182 -276 -53 -383 115 -95 279 -54 354 89 20
40 16 138 -9 186 -24 47 -71 90 -119 111 -43 17 -129 16 -173 -3z"/>
<path d="M1784 19523 c16 -66 17 -169 3 -215 l-15 -48 3713 0 3712 0 -13 52
c-18 66 -18 120 0 186 l13 52 -3710 0 -3709 0 6 -27z"/>
<path d="M11260 15365 l0 -3752 66 15 c64 14 151 9 207 -13 16 -7 17 176 17
3747 l0 3755 -52 -13 c-29 -8 -71 -14 -93 -14 -22 0 -64 6 -93 14 l-52 13 0
-3752z"/>
<path d="M1260 15322 l0 -3709 66 15 c64 14 151 9 207 -13 16 -7 17 174 17
3705 l0 3712 -32 -9 c-18 -4 -69 -8 -113 -8 -44 0 -95 4 -112 8 l-33 9 0
-3710z"/>
<path d="M9420 15320 c0 -3531 1 -3712 18 -3705 69 27 195 27 265 0 16 -7 17
174 17 3705 l0 3712 -37 -8 c-48 -11 -188 -12 -230 -1 l-33 9 0 -3712z"/>
<path d="M1355 11461 c-108 -27 -175 -112 -175 -221 0 -70 16 -108 69 -163 82
-86 236 -84 318 5 120 128 54 340 -118 377 -55 12 -51 12 -94 2z"/>
<path d="M9509 11456 c-149 -40 -212 -208 -129 -339 42 -67 108 -102 190 -102
73 1 109 16 160 67 44 43 63 91 63 158 0 147 -142 255 -284 216z"/>
<path d="M11355 11461 c-108 -27 -175 -112 -175 -221 0 -70 16 -108 69 -163
82 -86 236 -84 318 5 120 128 54 340 -118 377 -55 12 -51 12 -94 2z"/>
<path d="M19645 11461 c-106 -27 -175 -114 -175 -221 0 -212 264 -306 399
-143 93 113 53 280 -84 351 -29 15 -105 22 -140 13z"/>
<path d="M1784 11363 c16 -70 17 -179 3 -225 l-15 -48 3713 0 3713 0 -14 53
c-17 66 -18 119 -1 185 8 28 12 54 9 57 -3 3 -1672 5 -3710 5 l-3704 0 6 -27z"/>
<path d="M11784 11363 c16 -70 17 -179 3 -225 l-15 -48 3775 0 3775 0 -9 33
c-10 41 -10 193 0 235 l9 32 -3772 0 -3772 0 6 -27z"/>
<path d="M15289 9997 c-77 -29 -132 -91 -148 -168 -30 -140 76 -273 219 -272
67 0 115 19 158 63 51 51 66 87 67 161 0 56 -4 73 -30 115 -56 90 -175 135
-266 101z"/>
<path d="M15753 9725 c-11 -62 -46 -147 -78 -191 -15 -21 -14 -23 57 -61 131
-71 3413 -1792 3429 -1798 12 -5 18 2 22 28 8 51 45 121 89 172 22 25 38 48
36 50 -3 3 -747 395 -1654 871 -907 476 -1703 894 -1770 929 l-120 64 -11 -64z"/>
<path d="M13200 8844 c-960 -504 -1746 -917 -1748 -919 -1 -1 14 -20 34 -41
36 -39 94 -145 94 -174 0 -8 4 -21 8 -28 7 -9 456 222 1743 897 954 501 1735
915 1737 920 2 5 -13 30 -32 55 -32 42 -55 101 -71 179 -3 15 -9 27 -13 27 -4
0 -792 -412 -1752 -916z"/>
<path d="M9475 9653 c-119 -62 -165 -196 -106 -311 25 -48 55 -76 111 -101 63
-29 124 -27 189 5 168 84 167 318 -1 405 -47 24 -150 25 -193 2z"/>
<path d="M1275 9616 c-86 -38 -138 -117 -138 -211 -1 -91 45 -163 127 -201 84
-39 171 -29 239 27 130 107 100 319 -55 383 -45 19 -132 20 -173 2z"/>
<path d="M1725 9573 c25 -65 37 -143 31 -205 l-6 -68 3723 0 3724 0 -13 52
c-18 66 -18 120 0 186 l13 52 -3740 0 c-3557 0 -3739 -1 -3732 -17z"/>
<path d="M9700 9072 c-25 -11 -65 -16 -138 -17 l-102 0 2 -3735 c3 -3314 5
-3735 18 -3731 49 11 169 2 220 -18 30 -11 56 -21 58 -21 1 0 2 1697 2 3770 0
3010 -3 3770 -12 3769 -7 0 -29 -8 -48 -17z"/>
<path d="M11089 7812 c-73 -38 -112 -100 -117 -186 -3 -52 0 -71 21 -112 14
-27 33 -56 43 -65 142 -125 367 -39 382 145 6 69 -11 118 -57 169 -73 81 -176
100 -272 49z"/>
<path d="M19495 7829 c-84 -24 -149 -118 -149 -214 0 -129 95 -225 224 -225
128 0 223 96 223 225 1 153 -147 259 -298 214z"/>
<path d="M11050 5469 l0 -1771 28 6 c65 16 168 17 215 3 l47 -15 0 1775 0
1775 -27 -8 c-35 -11 -198 -12 -235 -1 l-28 7 0 -1771z"/>
<path d="M19420 5467 l0 -1775 48 15 c46 14 155 13 225 -3 l27 -6 0 1772 0
1772 -32 -9 c-18 -4 -71 -8 -118 -8 -47 0 -100 4 -117 8 l-33 9 0 -1775z"/>
<path d="M11116 3535 c-21 -7 -56 -31 -77 -51 -105 -102 -89 -271 33 -351 37
-25 51 -28 124 -28 75 0 86 3 125 30 58 41 99 119 99 189 -1 155 -157 264
-304 211z"/>
<path d="M19480 3529 c-110 -50 -160 -156 -127 -270 28 -96 114 -159 217 -159
186 0 290 206 180 358 -36 51 -118 92 -179 92 -26 0 -66 -10 -91 -21z"/>
<path d="M11549 3144 c-23 -48 -90 -124 -142 -160 l-28 -20 1786 -938 c983
-516 1788 -936 1789 -934 1 1 7 35 14 73 6 41 25 97 46 137 19 38 31 70 28 72
-29 16 -3446 1808 -3456 1812 -9 3 -22 -12 -37 -42z"/>
<path d="M17450 2281 c-949 -498 -1735 -912 -1748 -919 -22 -13 -22 -13 -4
-40 31 -44 53 -115 60 -189 l7 -69 1340 703 c737 387 1551 815 1809 950 l469
246 -39 31 c-61 48 -103 97 -127 148 -12 26 -26 47 -32 47 -5 0 -786 -409
-1735 -908z"/>
<path d="M9475 1403 c-119 -62 -165 -196 -106 -311 25 -48 55 -76 111 -101 63
-29 124 -27 189 5 168 84 167 318 -1 405 -47 24 -150 25 -193 2z"/>
<path d="M15264 1316 c-82 -38 -128 -110 -127 -201 0 -129 95 -225 223 -225
212 0 306 264 143 399 -68 56 -155 66 -239 27z"/>
</g>
</svg>
